<svg viewBox="0 0 24 24" fill="none" xmlns="http://www.w3.org/2000/svg">
<path d="M14.6543 8.82885C15.934 9.06646 17.5097 9.87352 18.0673 10.9889C18.6248 12.1042 18.3872 13.9103 17.2718 14.4678C16.1565 15.0253 14.3503 14.7877 13.235 13.6723L9.61394 10.0513L6.96395 12.7013L9.61394 15.3513C10.7293 16.4666 10.9669 18.2727 10.4093 19.3881C9.85175 20.5035 8.04565 20.7411 6.93029 20.1835C5.81494 19.626 5.57726 17.8199 6.69263 16.7045L9.34262 14.0545L5.72159 10.4335C4.60623 9.31811 4.36856 7.51201 4.92611 6.39665C5.48367 5.28129 7.28976 5.04362 8.40512 5.60117C9.52047 6.15873 9.75814 7.96482 8.64278 9.08018L12.2638 12.7012L14.9138 10.0512L12.2638 7.40118M15.4514 8.03175L18.6334 4.84976C18.8287 4.6545 19.1452 4.6545 19.3405 4.84976L19.694 5.20332C19.8893 5.39858 19.8893 5.71516 19.694 5.91042L16.5121 9.09242L15.4514 8.03175Z" fill="black"/>
</svg>
